<svg width="1511" height="829" viewBox="0 0 1511 829" fill="none" xmlns="http://www.w3.org/2000/svg">
<path d="M0.629272 47.498C0.629272 47.498 11.9571 38.6304 15.2085 24.1795C18.46 9.72867 30.522 0.0947571 30.522 0.0947571" stroke="#042F70" stroke-opacity="0.04" stroke-width="2" stroke-miterlimit="10"/>
<path d="M0.629272 86.9095C0.629272 86.9095 39.4374 74.4292 49.7163 43.0095C59.5757 12.4656 99.4327 0.0947571 99.4327 0.0947571" stroke="#042F70" stroke-opacity="0.04" stroke-width="2" stroke-miterlimit="10"/>
<path d="M0.629272 126.321C0.629272 126.321 66.9178 110.228 84.1192 61.9489C100.691 15.4214 168.343 0.0947571 168.343 0.0947571" stroke="#042F70" stroke-opacity="0.04" stroke-width="2" stroke-miterlimit="10"/>
<path d="M0.629272 165.842C0.629272 165.842 94.2932 146.027 118.627 80.8883C141.807 18.2678 237.149 0.0947571 237.149 0.0947571" stroke="#042F70" stroke-opacity="0.04" stroke-width="2" stroke-miterlimit="10"/>
<path d="M0.629272 205.253C0.629272 205.253 121.774 181.825 153.03 99.8277C182.923 21.2237 306.06 0.0947571 306.06 0.0947571" stroke="#042F70" stroke-opacity="0.04" stroke-width="2" stroke-miterlimit="10"/>
<path d="M0.629272 244.665C0.629272 244.665 149.254 217.624 187.538 118.658C224.038 24.1795 374.97 0.0947571 374.97 0.0947571" stroke="#042F70" stroke-opacity="0.04" stroke-width="2" stroke-miterlimit="10"/>
<path d="M0.629272 284.186C0.629272 284.186 176.629 253.423 221.941 137.706C265.154 27.0259 443.881 0.0947571 443.881 0.0947571" stroke="#042F70" stroke-opacity="0.04" stroke-width="2" stroke-miterlimit="10"/>
<path d="M0.629272 323.597C0.629272 323.597 204.11 289.222 256.448 156.536C306.27 29.9818 512.792 0.0947571 512.792 0.0947571" stroke="#042F70" stroke-opacity="0.04" stroke-width="2" stroke-miterlimit="10"/>
<path d="M0.629272 363.009C0.629272 363.009 231.59 325.02 290.956 175.476C347.385 32.9377 581.598 0.0947571 581.598 0.0947571" stroke="#042F70" stroke-opacity="0.04" stroke-width="2" stroke-miterlimit="10"/>
<path d="M0.629272 402.53C0.629272 402.53 258.966 360.929 325.359 194.415C388.606 35.784 650.508 0.0947571 650.508 0.0947571" stroke="#042F70" stroke-opacity="0.04" stroke-width="2" stroke-miterlimit="10"/>
<path d="M0.629272 441.941C0.629272 441.941 286.446 396.618 359.867 213.355C429.721 38.7399 719.419 0.0947571 719.419 0.0947571" stroke="#042F70" stroke-opacity="0.04" stroke-width="2" stroke-miterlimit="10"/>
<path d="M0.629272 481.353C0.629272 481.353 313.926 432.417 394.27 232.185C470.837 41.6958 788.33 0.0947571 788.33 0.0947571" stroke="#042F70" stroke-opacity="0.04" stroke-width="2" stroke-miterlimit="10"/>
<path d="M0.629272 520.874C0.629272 520.874 341.302 468.325 428.777 251.233C511.953 44.5421 857.135 0.0947571 857.135 0.0947571" stroke="#042F70" stroke-opacity="0.04" stroke-width="2" stroke-miterlimit="10"/>
<path d="M0.629272 560.285C0.629272 560.285 368.782 504.124 463.18 270.173C553.068 47.498 926.046 0.0947571 926.046 0.0947571" stroke="#042F70" stroke-opacity="0.04" stroke-width="2" stroke-miterlimit="10"/>
<path d="M0.629272 599.806C0.629272 599.806 396.262 539.922 497.688 289.112C594.184 50.4539 994.957 0.0947571 994.957 0.0947571" stroke="#042F70" stroke-opacity="0.04" stroke-width="2" stroke-miterlimit="10"/>
<path d="M0.629272 639.217C0.629272 639.217 423.638 575.721 532.091 308.052C635.3 53.3002 1063.87 0.0947571 1063.87 0.0947571" stroke="#042F70" stroke-opacity="0.04" stroke-width="2" stroke-miterlimit="10"/>
<path d="M0.629272 678.629C0.629272 678.629 451.118 611.52 566.599 326.882C676.415 56.2561 1132.78 0.0947571 1132.78 0.0947571" stroke="#042F70" stroke-opacity="0.04" stroke-width="2" stroke-miterlimit="10"/>
<path d="M0.629272 718.15C0.629272 718.15 478.599 647.319 601.107 345.93C717.531 59.212 1201.58 0.0947571 1201.58 0.0947571" stroke="#042F70" stroke-opacity="0.04" stroke-width="2" stroke-miterlimit="10"/>
<path d="M0.629272 757.561C0.629272 757.561 505.974 683.117 635.509 364.76C758.647 62.0584 1270.49 0.0947571 1270.49 0.0947571" stroke="#042F70" stroke-opacity="0.04" stroke-width="2" stroke-miterlimit="10"/>
<path d="M0.629272 796.973C0.629272 796.973 533.455 718.916 670.017 383.7C799.762 65.0142 1339.41 0.0947571 1339.41 0.0947571" stroke="#042F70" stroke-opacity="0.04" stroke-width="2" stroke-miterlimit="10"/>
<path d="M0.629272 836.494C0.629272 836.494 560.935 754.824 704.42 402.639C840.878 67.9701 1408.32 0.0947571 1408.32 0.0947571" stroke="#042F70" stroke-opacity="0.04" stroke-width="2" stroke-miterlimit="10"/>
<path d="M0.629272 875.905C0.629272 875.905 588.31 790.514 738.928 421.579C881.994 70.8165 1477.12 0.0947571 1477.12 0.0947571" stroke="#042F70" stroke-opacity="0.04" stroke-width="2" stroke-miterlimit="10"/>
<path d="M1507.12 828.502C1507.12 828.502 1495.79 837.37 1492.54 851.82C1489.29 866.381 1477.23 875.796 1477.23 875.796" stroke="#042F70" stroke-opacity="0.04" stroke-width="2" stroke-miterlimit="10"/>
<path d="M1507.12 789.091C1507.12 789.091 1468.31 801.571 1458.03 832.991C1448.17 863.534 1408.32 875.905 1408.32 875.905" stroke="#042F70" stroke-opacity="0.04" stroke-width="2" stroke-miterlimit="10"/>
<path d="M1507.12 749.679C1507.12 749.679 1440.83 765.772 1423.63 814.051C1406.95 860.579 1339.41 875.905 1339.41 875.905" stroke="#042F70" stroke-opacity="0.04" stroke-width="2" stroke-miterlimit="10"/>
<path d="M1507.12 710.158C1507.12 710.158 1413.46 729.973 1389.12 795.112C1365.94 857.623 1270.49 875.905 1270.49 875.905" stroke="#042F70" stroke-opacity="0.04" stroke-width="2" stroke-miterlimit="10"/>
<path d="M1507.12 670.747C1507.12 670.747 1385.97 694.175 1354.72 776.172C1324.83 854.776 1201.69 875.905 1201.69 875.905" stroke="#042F70" stroke-opacity="0.04" stroke-width="2" stroke-miterlimit="10"/>
<path d="M1507.12 631.226C1507.12 631.226 1358.49 658.266 1320.21 757.233C1283.61 851.82 1132.78 875.905 1132.78 875.905" stroke="#042F70" stroke-opacity="0.04" stroke-width="2" stroke-miterlimit="10"/>
<path d="M1507.12 591.814C1507.12 591.814 1331.12 622.577 1285.81 738.293C1242.59 848.865 1063.97 875.905 1063.97 875.905" stroke="#042F70" stroke-opacity="0.04" stroke-width="2" stroke-miterlimit="10"/>
<path d="M1507.12 552.403C1507.12 552.403 1303.64 586.778 1251.3 719.464C1201.37 846.018 994.957 875.905 994.957 875.905" stroke="#042F70" stroke-opacity="0.04" stroke-width="2" stroke-miterlimit="10"/>
<path d="M1507.12 512.882C1507.12 512.882 1276.16 550.87 1216.79 700.415C1160.26 843.062 926.046 875.905 926.046 875.905" stroke="#042F70" stroke-opacity="0.04" stroke-width="2" stroke-miterlimit="10"/>
<path d="M1507.12 473.47C1507.12 473.47 1248.78 515.071 1182.39 681.585C1119.14 840.106 857.135 875.905 857.135 875.905" stroke="#042F70" stroke-opacity="0.04" stroke-width="2" stroke-miterlimit="10"/>
<path d="M1507.12 434.059C1507.12 434.059 1221.3 479.382 1147.88 662.645C1078.03 837.26 788.33 875.905 788.33 875.905" stroke="#042F70" stroke-opacity="0.04" stroke-width="2" stroke-miterlimit="10"/>
<path d="M1507.12 394.538C1507.12 394.538 1193.82 443.474 1113.48 643.706C1036.91 834.304 719.419 875.905 719.419 875.905" stroke="#042F70" stroke-opacity="0.04" stroke-width="2" stroke-miterlimit="10"/>
<path d="M1507.12 355.126C1507.12 355.126 1166.45 407.675 1078.97 624.767C995.796 831.458 650.508 875.905 650.508 875.905" stroke="#042F70" stroke-opacity="0.04" stroke-width="2" stroke-miterlimit="10"/>
<path d="M1507.12 315.715C1507.12 315.715 1138.97 371.876 1044.57 605.827C954.68 828.502 581.598 875.905 581.598 875.905" stroke="#042F70" stroke-opacity="0.04" stroke-width="2" stroke-miterlimit="10"/>
<path d="M1507.12 276.194C1507.12 276.194 1111.49 336.078 1010.06 586.888C913.565 825.546 512.792 875.905 512.792 875.905" stroke="#042F70" stroke-opacity="0.04" stroke-width="2" stroke-miterlimit="10"/>
<path d="M1507.12 236.783C1507.12 236.783 1084.11 300.279 975.658 567.948C872.449 822.7 443.881 875.905 443.881 875.905" stroke="#042F70" stroke-opacity="0.04" stroke-width="2" stroke-miterlimit="10"/>
<path d="M1507.12 197.371C1507.12 197.371 1056.63 264.48 941.15 549.118C831.333 819.744 374.97 875.905 374.97 875.905" stroke="#042F70" stroke-opacity="0.04" stroke-width="2" stroke-miterlimit="10"/>
<path d="M1507.12 157.85C1507.12 157.85 1029.15 228.681 906.642 530.07C790.218 816.788 306.06 875.905 306.06 875.905" stroke="#042F70" stroke-opacity="0.04" stroke-width="2" stroke-miterlimit="10"/>
<path d="M1507.12 118.439C1507.12 118.439 1001.77 192.883 872.239 511.24C749.102 813.942 237.149 875.905 237.149 875.905" stroke="#042F70" stroke-opacity="0.04" stroke-width="2" stroke-miterlimit="10"/>
<path d="M1507.12 79.0272C1507.12 79.0272 974.294 157.084 837.731 492.3C707.986 810.986 168.343 875.905 168.343 875.905" stroke="#042F70" stroke-opacity="0.04" stroke-width="2" stroke-miterlimit="10"/>
<path d="M1507.12 39.5062C1507.12 39.5062 946.814 121.176 803.328 473.361C666.766 808.03 99.4327 875.905 99.4327 875.905" stroke="#042F70" stroke-opacity="0.04" stroke-width="2" stroke-miterlimit="10"/>
<path d="M1507.12 0.0947571C1507.12 0.0947571 919.438 85.4863 768.821 454.421C625.65 805.184 30.5221 875.905 30.5221 875.905" stroke="#042F70" stroke-opacity="0.04" stroke-width="2" stroke-miterlimit="10"/>
</svg>
